<mxfile host="65bd71144e">
    <diagram id="C3VMw4yVdiIqAn-BuisE" name="Page-1">
        <mxGraphModel dx="1767" dy="1866" grid="1" gridSize="10" guides="1" tooltips="1" connect="1" arrows="1" fold="1" page="1" pageScale="1" pageWidth="850" pageHeight="1100" math="0" shadow="0">
            <root>
                <mxCell id="0"/>
                <mxCell id="1" parent="0"/>
                <mxCell id="2" value="" style="childLayout=tableLayout;recursiveResize=0;shadow=0;strokeColor=#E6E6E6;align=center;" parent="1" vertex="1">
                    <mxGeometry x="-850" y="-80" width="841" height="513" as="geometry"/>
                </mxCell>
                <mxCell id="3" value="" style="shape=tableRow;horizontal=0;startSize=0;swimlaneHead=0;swimlaneBody=0;top=0;left=0;bottom=0;right=0;dropTarget=0;collapsible=0;recursiveResize=0;expand=0;fontStyle=0;fillColor=none;strokeColor=inherit;align=center;" parent="2" vertex="1">
                    <mxGeometry width="841" height="44" as="geometry"/>
                </mxCell>
                <mxCell id="4" value="&lt;span style=&quot;white-space: pre;&quot;&gt;&#9;&lt;/span&gt;STEP" style="connectable=0;recursiveResize=0;strokeColor=inherit;fillColor=none;align=left;whiteSpace=wrap;html=1;fontStyle=1;labelPosition=center;verticalLabelPosition=middle;verticalAlign=middle;" parent="3" vertex="1">
                    <mxGeometry width="480" height="44" as="geometry">
                        <mxRectangle width="480" height="44" as="alternateBounds"/>
                    </mxGeometry>
                </mxCell>
                <mxCell id="5" value="&lt;span style=&quot;white-space: pre;&quot;&gt;&#9;&lt;/span&gt;COST CALCULATION" style="connectable=0;recursiveResize=0;strokeColor=inherit;fillColor=none;align=center;whiteSpace=wrap;html=1;fontStyle=1" parent="3" vertex="1">
                    <mxGeometry x="480" width="200" height="44" as="geometry">
                        <mxRectangle width="200" height="44" as="alternateBounds"/>
                    </mxGeometry>
                </mxCell>
                <mxCell id="6" value="&lt;span style=&quot;white-space: pre;&quot;&gt;&#9;&lt;/span&gt;STEP COST" style="connectable=0;recursiveResize=0;strokeColor=inherit;fillColor=none;align=center;whiteSpace=wrap;html=1;fontStyle=1" parent="3" vertex="1">
                    <mxGeometry x="680" width="161" height="44" as="geometry">
                        <mxRectangle width="161" height="44" as="alternateBounds"/>
                    </mxGeometry>
                </mxCell>
                <mxCell id="7" style="shape=tableRow;horizontal=0;startSize=0;swimlaneHead=0;swimlaneBody=0;top=0;left=0;bottom=0;right=0;dropTarget=0;collapsible=0;recursiveResize=0;expand=0;fontStyle=0;fillColor=none;strokeColor=inherit;align=center;" parent="2" vertex="1">
                    <mxGeometry y="44" width="841" height="36" as="geometry"/>
                </mxCell>
                <mxCell id="8" value="&lt;span style=&quot;white-space: pre;&quot;&gt;&#9;&lt;/span&gt;1 USER opens validation results window" style="connectable=0;recursiveResize=0;strokeColor=inherit;fillColor=none;align=left;whiteSpace=wrap;html=1;labelPosition=center;verticalLabelPosition=middle;verticalAlign=middle;" parent="7" vertex="1">
                    <mxGeometry width="480" height="36" as="geometry">
                        <mxRectangle width="480" height="36" as="alternateBounds"/>
                    </mxGeometry>
                </mxCell>
                <mxCell id="9" value="1 x 1 x 2.5" style="connectable=0;recursiveResize=0;strokeColor=inherit;fillColor=none;align=center;whiteSpace=wrap;html=1;" parent="7" vertex="1">
                    <mxGeometry x="480" width="200" height="36" as="geometry">
                        <mxRectangle width="200" height="36" as="alternateBounds"/>
                    </mxGeometry>
                </mxCell>
                <mxCell id="10" value="2.5" style="connectable=0;recursiveResize=0;strokeColor=inherit;fillColor=none;align=center;whiteSpace=wrap;html=1;" parent="7" vertex="1">
                    <mxGeometry x="680" width="161" height="36" as="geometry">
                        <mxRectangle width="161" height="36" as="alternateBounds"/>
                    </mxGeometry>
                </mxCell>
                <mxCell id="60" style="shape=tableRow;horizontal=0;startSize=0;swimlaneHead=0;swimlaneBody=0;top=0;left=0;bottom=0;right=0;dropTarget=0;collapsible=0;recursiveResize=0;expand=0;fontStyle=0;fillColor=none;strokeColor=inherit;align=center;" parent="2" vertex="1">
                    <mxGeometry y="80" width="841" height="36" as="geometry"/>
                </mxCell>
                <mxCell id="61" value="&lt;span style=&quot;white-space: pre;&quot;&gt;&#9;&lt;/span&gt;2 SYSTEM shows the validation results table" style="connectable=0;recursiveResize=0;strokeColor=inherit;fillColor=none;align=left;whiteSpace=wrap;html=1;labelPosition=center;verticalLabelPosition=middle;verticalAlign=middle;" parent="60" vertex="1">
                    <mxGeometry width="480" height="36" as="geometry">
                        <mxRectangle width="480" height="36" as="alternateBounds"/>
                    </mxGeometry>
                </mxCell>
                <mxCell id="62" value="" style="connectable=0;recursiveResize=0;strokeColor=inherit;fillColor=none;align=center;whiteSpace=wrap;html=1;" parent="60" vertex="1">
                    <mxGeometry x="480" width="200" height="36" as="geometry">
                        <mxRectangle width="200" height="36" as="alternateBounds"/>
                    </mxGeometry>
                </mxCell>
                <mxCell id="63" style="connectable=0;recursiveResize=0;strokeColor=inherit;fillColor=none;align=center;whiteSpace=wrap;html=1;" parent="60" vertex="1">
                    <mxGeometry x="680" width="161" height="36" as="geometry">
                        <mxRectangle width="161" height="36" as="alternateBounds"/>
                    </mxGeometry>
                </mxCell>
                <mxCell id="11" style="shape=tableRow;horizontal=0;startSize=0;swimlaneHead=0;swimlaneBody=0;top=0;left=0;bottom=0;right=0;dropTarget=0;collapsible=0;recursiveResize=0;expand=0;fontStyle=0;fillColor=none;strokeColor=inherit;align=center;" parent="2" vertex="1">
                    <mxGeometry y="116" width="841" height="44" as="geometry"/>
                </mxCell>
                <mxCell id="12" value="&lt;span style=&quot;border-color: var(--border-color);&quot;&gt;&#9;&lt;/span&gt;&lt;span style=&quot;white-space: pre;&quot;&gt;&#9;&lt;/span&gt;3 USER confronts best and second best classifier" style="connectable=0;recursiveResize=0;strokeColor=inherit;fillColor=none;align=left;whiteSpace=wrap;html=1;labelPosition=center;verticalLabelPosition=middle;verticalAlign=middle;" parent="11" vertex="1">
                    <mxGeometry width="480" height="44" as="geometry">
                        <mxRectangle width="480" height="44" as="alternateBounds"/>
                    </mxGeometry>
                </mxCell>
                <mxCell id="13" value="1 x&amp;nbsp; 3 x 2.5" style="connectable=0;recursiveResize=0;strokeColor=inherit;fillColor=none;align=center;whiteSpace=wrap;html=1;" parent="11" vertex="1">
                    <mxGeometry x="480" width="200" height="44" as="geometry">
                        <mxRectangle width="200" height="44" as="alternateBounds"/>
                    </mxGeometry>
                </mxCell>
                <mxCell id="14" value="7.5" style="connectable=0;recursiveResize=0;strokeColor=inherit;fillColor=none;align=center;whiteSpace=wrap;html=1;" parent="11" vertex="1">
                    <mxGeometry x="680" width="161" height="44" as="geometry">
                        <mxRectangle width="161" height="44" as="alternateBounds"/>
                    </mxGeometry>
                </mxCell>
                <mxCell id="19" style="shape=tableRow;horizontal=0;startSize=0;swimlaneHead=0;swimlaneBody=0;top=0;left=0;bottom=0;right=0;dropTarget=0;collapsible=0;recursiveResize=0;expand=0;fontStyle=0;fillColor=none;strokeColor=inherit;align=center;" parent="2" vertex="1">
                    <mxGeometry y="160" width="841" height="44" as="geometry"/>
                </mxCell>
                <mxCell id="20" value="&lt;span style=&quot;white-space: pre;&quot;&gt;&#9;&lt;/span&gt;3.1&amp;nbsp;IF valid classifier is present" style="connectable=0;recursiveResize=0;strokeColor=inherit;fillColor=none;align=left;whiteSpace=wrap;html=1;labelPosition=center;verticalLabelPosition=middle;verticalAlign=middle;" parent="19" vertex="1">
                    <mxGeometry width="480" height="44" as="geometry">
                        <mxRectangle width="480" height="44" as="alternateBounds"/>
                    </mxGeometry>
                </mxCell>
                <mxCell id="21" value=".95" style="connectable=0;recursiveResize=0;strokeColor=inherit;fillColor=none;align=center;whiteSpace=wrap;html=1;" parent="19" vertex="1">
                    <mxGeometry x="480" width="200" height="44" as="geometry">
                        <mxRectangle width="200" height="44" as="alternateBounds"/>
                    </mxGeometry>
                </mxCell>
                <mxCell id="22" value="" style="connectable=0;recursiveResize=0;strokeColor=inherit;fillColor=none;align=center;whiteSpace=wrap;html=1;" parent="19" vertex="1">
                    <mxGeometry x="680" width="161" height="44" as="geometry">
                        <mxRectangle width="161" height="44" as="alternateBounds"/>
                    </mxGeometry>
                </mxCell>
                <mxCell id="23" style="shape=tableRow;horizontal=0;startSize=0;swimlaneHead=0;swimlaneBody=0;top=0;left=0;bottom=0;right=0;dropTarget=0;collapsible=0;recursiveResize=0;expand=0;fontStyle=0;fillColor=none;strokeColor=inherit;align=center;" parent="2" vertex="1">
                    <mxGeometry y="204" width="841" height="44" as="geometry"/>
                </mxCell>
                <mxCell id="24" value="&lt;span style=&quot;&quot;&gt;&#9;&lt;/span&gt;&lt;span style=&quot;white-space: pre;&quot;&gt;&#9;&lt;/span&gt;3.1.1&amp;nbsp;USER selects the classifier of choice" style="connectable=0;recursiveResize=0;strokeColor=inherit;fillColor=none;align=left;whiteSpace=wrap;html=1;labelPosition=center;verticalLabelPosition=middle;verticalAlign=middle;" parent="23" vertex="1">
                    <mxGeometry width="480" height="44" as="geometry">
                        <mxRectangle width="480" height="44" as="alternateBounds"/>
                    </mxGeometry>
                </mxCell>
                <mxCell id="25" value=".95 x 1 x 2.5" style="connectable=0;recursiveResize=0;strokeColor=inherit;fillColor=none;align=center;whiteSpace=wrap;html=1;" parent="23" vertex="1">
                    <mxGeometry x="480" width="200" height="44" as="geometry">
                        <mxRectangle width="200" height="44" as="alternateBounds"/>
                    </mxGeometry>
                </mxCell>
                <mxCell id="26" value="2.375" style="connectable=0;recursiveResize=0;strokeColor=inherit;fillColor=none;align=center;whiteSpace=wrap;html=1;" parent="23" vertex="1">
                    <mxGeometry x="680" width="161" height="44" as="geometry">
                        <mxRectangle width="161" height="44" as="alternateBounds"/>
                    </mxGeometry>
                </mxCell>
                <mxCell id="78" style="shape=tableRow;horizontal=0;startSize=0;swimlaneHead=0;swimlaneBody=0;top=0;left=0;bottom=0;right=0;dropTarget=0;collapsible=0;recursiveResize=0;expand=0;fontStyle=0;fillColor=none;strokeColor=inherit;align=center;" parent="2" vertex="1">
                    <mxGeometry y="248" width="841" height="44" as="geometry"/>
                </mxCell>
                <mxCell id="79" value="&lt;span style=&quot;white-space: pre;&quot;&gt;&#9;&lt;/span&gt;3.1.2 SYSTEM enables &quot;SAVE CLASSIFIER&quot; button" style="connectable=0;recursiveResize=0;strokeColor=inherit;fillColor=none;align=left;whiteSpace=wrap;html=1;labelPosition=center;verticalLabelPosition=middle;verticalAlign=middle;" parent="78" vertex="1">
                    <mxGeometry width="480" height="44" as="geometry">
                        <mxRectangle width="480" height="44" as="alternateBounds"/>
                    </mxGeometry>
                </mxCell>
                <mxCell id="80" style="connectable=0;recursiveResize=0;strokeColor=inherit;fillColor=none;align=center;whiteSpace=wrap;html=1;" parent="78" vertex="1">
                    <mxGeometry x="480" width="200" height="44" as="geometry">
                        <mxRectangle width="200" height="44" as="alternateBounds"/>
                    </mxGeometry>
                </mxCell>
                <mxCell id="81" style="connectable=0;recursiveResize=0;strokeColor=inherit;fillColor=none;align=center;whiteSpace=wrap;html=1;" parent="78" vertex="1">
                    <mxGeometry x="680" width="161" height="44" as="geometry">
                        <mxRectangle width="161" height="44" as="alternateBounds"/>
                    </mxGeometry>
                </mxCell>
                <mxCell id="27" style="shape=tableRow;horizontal=0;startSize=0;swimlaneHead=0;swimlaneBody=0;top=0;left=0;bottom=0;right=0;dropTarget=0;collapsible=0;recursiveResize=0;expand=0;fontStyle=0;fillColor=none;strokeColor=inherit;align=center;" parent="2" vertex="1">
                    <mxGeometry y="292" width="841" height="44" as="geometry"/>
                </mxCell>
                <mxCell id="28" value="&lt;span style=&quot;white-space: pre;&quot;&gt;&#9;&lt;/span&gt;3.1.3 USER presses &quot;SAVE CLASSIFIER&quot;" style="connectable=0;recursiveResize=0;strokeColor=inherit;fillColor=none;align=left;whiteSpace=wrap;html=1;labelPosition=center;verticalLabelPosition=middle;verticalAlign=middle;" parent="27" vertex="1">
                    <mxGeometry width="480" height="44" as="geometry">
                        <mxRectangle width="480" height="44" as="alternateBounds"/>
                    </mxGeometry>
                </mxCell>
                <mxCell id="29" value=".95 x 1 x 2.5" style="connectable=0;recursiveResize=0;strokeColor=inherit;fillColor=none;align=center;whiteSpace=wrap;html=1;" parent="27" vertex="1">
                    <mxGeometry x="480" width="200" height="44" as="geometry">
                        <mxRectangle width="200" height="44" as="alternateBounds"/>
                    </mxGeometry>
                </mxCell>
                <mxCell id="30" value="2.375" style="connectable=0;recursiveResize=0;strokeColor=inherit;fillColor=none;align=center;whiteSpace=wrap;html=1;" parent="27" vertex="1">
                    <mxGeometry x="680" width="161" height="44" as="geometry">
                        <mxRectangle width="161" height="44" as="alternateBounds"/>
                    </mxGeometry>
                </mxCell>
                <mxCell id="31" style="shape=tableRow;horizontal=0;startSize=0;swimlaneHead=0;swimlaneBody=0;top=0;left=0;bottom=0;right=0;dropTarget=0;collapsible=0;recursiveResize=0;expand=0;fontStyle=0;fillColor=none;strokeColor=inherit;align=center;" parent="2" vertex="1">
                    <mxGeometry y="336" width="841" height="45" as="geometry"/>
                </mxCell>
                <mxCell id="32" value="&lt;span style=&quot;white-space: pre;&quot;&gt;&#9;&lt;/span&gt;3.2&amp;nbsp;ELSE if invalid classifier" style="connectable=0;recursiveResize=0;strokeColor=inherit;fillColor=none;align=left;whiteSpace=wrap;html=1;labelPosition=center;verticalLabelPosition=middle;verticalAlign=middle;" parent="31" vertex="1">
                    <mxGeometry width="480" height="45" as="geometry">
                        <mxRectangle width="480" height="45" as="alternateBounds"/>
                    </mxGeometry>
                </mxCell>
                <mxCell id="33" value=".05" style="connectable=0;recursiveResize=0;strokeColor=inherit;fillColor=none;align=center;whiteSpace=wrap;html=1;" parent="31" vertex="1">
                    <mxGeometry x="480" width="200" height="45" as="geometry">
                        <mxRectangle width="200" height="45" as="alternateBounds"/>
                    </mxGeometry>
                </mxCell>
                <mxCell id="34" style="connectable=0;recursiveResize=0;strokeColor=inherit;fillColor=none;align=center;whiteSpace=wrap;html=1;" parent="31" vertex="1">
                    <mxGeometry x="680" width="161" height="45" as="geometry">
                        <mxRectangle width="161" height="45" as="alternateBounds"/>
                    </mxGeometry>
                </mxCell>
                <mxCell id="35" style="shape=tableRow;horizontal=0;startSize=0;swimlaneHead=0;swimlaneBody=0;top=0;left=0;bottom=0;right=0;dropTarget=0;collapsible=0;recursiveResize=0;expand=0;fontStyle=0;fillColor=none;strokeColor=inherit;align=center;" parent="2" vertex="1">
                    <mxGeometry y="381" width="841" height="44" as="geometry"/>
                </mxCell>
                <mxCell id="36" value="&lt;span style=&quot;white-space: pre;&quot;&gt;&#9;&lt;/span&gt;3.2.1&amp;nbsp;USER selects &quot;INVALID CLASSIFIER&quot;" style="connectable=0;recursiveResize=0;strokeColor=inherit;fillColor=none;align=left;whiteSpace=wrap;html=1;labelPosition=center;verticalLabelPosition=middle;verticalAlign=middle;" parent="35" vertex="1">
                    <mxGeometry width="480" height="44" as="geometry">
                        <mxRectangle width="480" height="44" as="alternateBounds"/>
                    </mxGeometry>
                </mxCell>
                <mxCell id="37" value=".05 x 1 x 2.5" style="connectable=0;recursiveResize=0;strokeColor=inherit;fillColor=none;align=center;whiteSpace=wrap;html=1;" parent="35" vertex="1">
                    <mxGeometry x="480" width="200" height="44" as="geometry">
                        <mxRectangle width="200" height="44" as="alternateBounds"/>
                    </mxGeometry>
                </mxCell>
                <mxCell id="38" value="1.25" style="connectable=0;recursiveResize=0;strokeColor=inherit;fillColor=none;align=center;whiteSpace=wrap;html=1;" parent="35" vertex="1">
                    <mxGeometry x="680" width="161" height="44" as="geometry">
                        <mxRectangle width="161" height="44" as="alternateBounds"/>
                    </mxGeometry>
                </mxCell>
                <mxCell id="73" style="shape=tableRow;horizontal=0;startSize=0;swimlaneHead=0;swimlaneBody=0;top=0;left=0;bottom=0;right=0;dropTarget=0;collapsible=0;recursiveResize=0;expand=0;fontStyle=0;fillColor=none;strokeColor=inherit;align=center;" parent="2" vertex="1">
                    <mxGeometry y="425" width="841" height="44" as="geometry"/>
                </mxCell>
                <mxCell id="74" value="&lt;span style=&quot;&quot;&gt;&#9;&lt;/span&gt;&lt;span style=&quot;white-space: pre;&quot;&gt;&#9;&lt;/span&gt;4 USER closes data balancing form" style="connectable=0;recursiveResize=0;strokeColor=inherit;fillColor=none;align=left;whiteSpace=wrap;html=1;labelPosition=center;verticalLabelPosition=middle;verticalAlign=middle;" parent="73" vertex="1">
                    <mxGeometry width="480" height="44" as="geometry">
                        <mxRectangle width="480" height="44" as="alternateBounds"/>
                    </mxGeometry>
                </mxCell>
                <mxCell id="75" value="1 x 1 x 2.5" style="connectable=0;recursiveResize=0;strokeColor=inherit;fillColor=none;align=center;whiteSpace=wrap;html=1;" parent="73" vertex="1">
                    <mxGeometry x="480" width="200" height="44" as="geometry">
                        <mxRectangle width="200" height="44" as="alternateBounds"/>
                    </mxGeometry>
                </mxCell>
                <mxCell id="76" value="2.5" style="connectable=0;recursiveResize=0;strokeColor=inherit;fillColor=none;align=center;whiteSpace=wrap;html=1;" parent="73" vertex="1">
                    <mxGeometry x="680" width="161" height="44" as="geometry">
                        <mxRectangle width="161" height="44" as="alternateBounds"/>
                    </mxGeometry>
                </mxCell>
                <mxCell id="82" style="shape=tableRow;horizontal=0;startSize=0;swimlaneHead=0;swimlaneBody=0;top=0;left=0;bottom=0;right=0;dropTarget=0;collapsible=0;recursiveResize=0;expand=0;fontStyle=0;fillColor=none;strokeColor=inherit;align=center;" parent="2" vertex="1">
                    <mxGeometry y="469" width="841" height="44" as="geometry"/>
                </mxCell>
                <mxCell id="83" style="connectable=0;recursiveResize=0;strokeColor=inherit;fillColor=none;align=left;whiteSpace=wrap;html=1;labelPosition=center;verticalLabelPosition=middle;verticalAlign=middle;" parent="82" vertex="1">
                    <mxGeometry width="480" height="44" as="geometry">
                        <mxRectangle width="480" height="44" as="alternateBounds"/>
                    </mxGeometry>
                </mxCell>
                <mxCell id="84" value="&lt;b&gt;HUMAN TASKS COST&lt;/b&gt;" style="connectable=0;recursiveResize=0;strokeColor=inherit;fillColor=none;align=center;whiteSpace=wrap;html=1;" parent="82" vertex="1">
                    <mxGeometry x="480" width="200" height="44" as="geometry">
                        <mxRectangle width="200" height="44" as="alternateBounds"/>
                    </mxGeometry>
                </mxCell>
                <mxCell id="85" value="&lt;b&gt;18.5&lt;/b&gt;" style="connectable=0;recursiveResize=0;strokeColor=inherit;fillColor=none;align=center;whiteSpace=wrap;html=1;" parent="82" vertex="1">
                    <mxGeometry x="680" width="161" height="44" as="geometry">
                        <mxRectangle width="161" height="44" as="alternateBounds"/>
                    </mxGeometry>
                </mxCell>
                <mxCell id="86" value="" style="childLayout=tableLayout;recursiveResize=0;shadow=0;strokeColor=#E6E6E6;align=center;" vertex="1" parent="1">
                    <mxGeometry x="-850" y="480" width="841" height="733" as="geometry"/>
                </mxCell>
                <mxCell id="87" value="" style="shape=tableRow;horizontal=0;startSize=0;swimlaneHead=0;swimlaneBody=0;top=0;left=0;bottom=0;right=0;dropTarget=0;collapsible=0;recursiveResize=0;expand=0;fontStyle=0;fillColor=none;strokeColor=inherit;align=center;" vertex="1" parent="86">
                    <mxGeometry width="841" height="44" as="geometry"/>
                </mxCell>
                <mxCell id="88" value="&lt;span style=&quot;white-space: pre;&quot;&gt;&#9;&lt;/span&gt;STEP" style="connectable=0;recursiveResize=0;strokeColor=inherit;fillColor=none;align=left;whiteSpace=wrap;html=1;fontStyle=1;labelPosition=center;verticalLabelPosition=middle;verticalAlign=middle;" vertex="1" parent="87">
                    <mxGeometry width="480" height="44" as="geometry">
                        <mxRectangle width="480" height="44" as="alternateBounds"/>
                    </mxGeometry>
                </mxCell>
                <mxCell id="89" value="&lt;span style=&quot;white-space: pre;&quot;&gt;&#9;&lt;/span&gt;COST CALCULATION" style="connectable=0;recursiveResize=0;strokeColor=inherit;fillColor=none;align=center;whiteSpace=wrap;html=1;fontStyle=1" vertex="1" parent="87">
                    <mxGeometry x="480" width="200" height="44" as="geometry">
                        <mxRectangle width="200" height="44" as="alternateBounds"/>
                    </mxGeometry>
                </mxCell>
                <mxCell id="90" value="&lt;span style=&quot;white-space: pre;&quot;&gt;&#9;&lt;/span&gt;STEP COST" style="connectable=0;recursiveResize=0;strokeColor=inherit;fillColor=none;align=center;whiteSpace=wrap;html=1;fontStyle=1" vertex="1" parent="87">
                    <mxGeometry x="680" width="161" height="44" as="geometry">
                        <mxRectangle width="161" height="44" as="alternateBounds"/>
                    </mxGeometry>
                </mxCell>
                <mxCell id="91" style="shape=tableRow;horizontal=0;startSize=0;swimlaneHead=0;swimlaneBody=0;top=0;left=0;bottom=0;right=0;dropTarget=0;collapsible=0;recursiveResize=0;expand=0;fontStyle=0;fillColor=none;strokeColor=inherit;align=center;" vertex="1" parent="86">
                    <mxGeometry y="44" width="841" height="36" as="geometry"/>
                </mxCell>
                <mxCell id="92" value="&lt;span style=&quot;white-space: pre;&quot;&gt;&#9;&lt;/span&gt;1 USER opens validation results window" style="connectable=0;recursiveResize=0;strokeColor=inherit;fillColor=none;align=left;whiteSpace=wrap;html=1;labelPosition=center;verticalLabelPosition=middle;verticalAlign=middle;" vertex="1" parent="91">
                    <mxGeometry width="480" height="36" as="geometry">
                        <mxRectangle width="480" height="36" as="alternateBounds"/>
                    </mxGeometry>
                </mxCell>
                <mxCell id="93" value="1 x 1 x 2.5" style="connectable=0;recursiveResize=0;strokeColor=inherit;fillColor=none;align=center;whiteSpace=wrap;html=1;" vertex="1" parent="91">
                    <mxGeometry x="480" width="200" height="36" as="geometry">
                        <mxRectangle width="200" height="36" as="alternateBounds"/>
                    </mxGeometry>
                </mxCell>
                <mxCell id="94" value="2.5" style="connectable=0;recursiveResize=0;strokeColor=inherit;fillColor=none;align=center;whiteSpace=wrap;html=1;" vertex="1" parent="91">
                    <mxGeometry x="680" width="161" height="36" as="geometry">
                        <mxRectangle width="161" height="36" as="alternateBounds"/>
                    </mxGeometry>
                </mxCell>
                <mxCell id="95" style="shape=tableRow;horizontal=0;startSize=0;swimlaneHead=0;swimlaneBody=0;top=0;left=0;bottom=0;right=0;dropTarget=0;collapsible=0;recursiveResize=0;expand=0;fontStyle=0;fillColor=none;strokeColor=inherit;align=center;" vertex="1" parent="86">
                    <mxGeometry y="80" width="841" height="36" as="geometry"/>
                </mxCell>
                <mxCell id="96" value="&lt;span style=&quot;white-space: pre;&quot;&gt;&#9;&lt;/span&gt;2 SYSTEM shows the validation results table" style="connectable=0;recursiveResize=0;strokeColor=inherit;fillColor=none;align=left;whiteSpace=wrap;html=1;labelPosition=center;verticalLabelPosition=middle;verticalAlign=middle;" vertex="1" parent="95">
                    <mxGeometry width="480" height="36" as="geometry">
                        <mxRectangle width="480" height="36" as="alternateBounds"/>
                    </mxGeometry>
                </mxCell>
                <mxCell id="97" value="" style="connectable=0;recursiveResize=0;strokeColor=inherit;fillColor=none;align=center;whiteSpace=wrap;html=1;" vertex="1" parent="95">
                    <mxGeometry x="480" width="200" height="36" as="geometry">
                        <mxRectangle width="200" height="36" as="alternateBounds"/>
                    </mxGeometry>
                </mxCell>
                <mxCell id="98" style="connectable=0;recursiveResize=0;strokeColor=inherit;fillColor=none;align=center;whiteSpace=wrap;html=1;" vertex="1" parent="95">
                    <mxGeometry x="680" width="161" height="36" as="geometry">
                        <mxRectangle width="161" height="36" as="alternateBounds"/>
                    </mxGeometry>
                </mxCell>
                <mxCell id="99" style="shape=tableRow;horizontal=0;startSize=0;swimlaneHead=0;swimlaneBody=0;top=0;left=0;bottom=0;right=0;dropTarget=0;collapsible=0;recursiveResize=0;expand=0;fontStyle=0;fillColor=none;strokeColor=inherit;align=center;" vertex="1" parent="86">
                    <mxGeometry y="116" width="841" height="44" as="geometry"/>
                </mxCell>
                <mxCell id="100" value="&lt;span style=&quot;border-color: var(--border-color);&quot;&gt;&#9;&lt;/span&gt;&lt;span style=&quot;white-space: pre;&quot;&gt;&#9;&lt;/span&gt;3 USER confronts first and second rows of the table" style="connectable=0;recursiveResize=0;strokeColor=inherit;fillColor=none;align=left;whiteSpace=wrap;html=1;labelPosition=center;verticalLabelPosition=middle;verticalAlign=middle;" vertex="1" parent="99">
                    <mxGeometry width="480" height="44" as="geometry">
                        <mxRectangle width="480" height="44" as="alternateBounds"/>
                    </mxGeometry>
                </mxCell>
                <mxCell id="101" value="1 x&amp;nbsp; 3 x 2.5" style="connectable=0;recursiveResize=0;strokeColor=inherit;fillColor=none;align=center;whiteSpace=wrap;html=1;" vertex="1" parent="99">
                    <mxGeometry x="480" width="200" height="44" as="geometry">
                        <mxRectangle width="200" height="44" as="alternateBounds"/>
                    </mxGeometry>
                </mxCell>
                <mxCell id="102" value="7.5" style="connectable=0;recursiveResize=0;strokeColor=inherit;fillColor=none;align=center;whiteSpace=wrap;html=1;" vertex="1" parent="99">
                    <mxGeometry x="680" width="161" height="44" as="geometry">
                        <mxRectangle width="161" height="44" as="alternateBounds"/>
                    </mxGeometry>
                </mxCell>
                <mxCell id="139" style="shape=tableRow;horizontal=0;startSize=0;swimlaneHead=0;swimlaneBody=0;top=0;left=0;bottom=0;right=0;dropTarget=0;collapsible=0;recursiveResize=0;expand=0;fontStyle=0;fillColor=none;strokeColor=inherit;align=center;" vertex="1" parent="86">
                    <mxGeometry y="160" width="841" height="44" as="geometry"/>
                </mxCell>
                <mxCell id="140" value="&lt;span style=&quot;white-space: pre;&quot;&gt;&#9;&lt;/span&gt;3.1&amp;nbsp;IF validation error of first classifier is lower more than one order of magnitude &lt;span style=&quot;white-space: pre;&quot;&gt;&#9;&lt;/span&gt;&lt;span style=&quot;white-space: pre;&quot;&gt;&#9;&lt;/span&gt;from the second one" style="connectable=0;recursiveResize=0;strokeColor=inherit;fillColor=none;align=left;whiteSpace=wrap;html=1;labelPosition=center;verticalLabelPosition=middle;verticalAlign=middle;" vertex="1" parent="139">
                    <mxGeometry width="480" height="44" as="geometry">
                        <mxRectangle width="480" height="44" as="alternateBounds"/>
                    </mxGeometry>
                </mxCell>
                <mxCell id="141" style="connectable=0;recursiveResize=0;strokeColor=inherit;fillColor=none;align=center;whiteSpace=wrap;html=1;" vertex="1" parent="139">
                    <mxGeometry x="480" width="200" height="44" as="geometry">
                        <mxRectangle width="200" height="44" as="alternateBounds"/>
                    </mxGeometry>
                </mxCell>
                <mxCell id="142" style="connectable=0;recursiveResize=0;strokeColor=inherit;fillColor=none;align=center;whiteSpace=wrap;html=1;" vertex="1" parent="139">
                    <mxGeometry x="680" width="161" height="44" as="geometry">
                        <mxRectangle width="161" height="44" as="alternateBounds"/>
                    </mxGeometry>
                </mxCell>
                <mxCell id="135" style="shape=tableRow;horizontal=0;startSize=0;swimlaneHead=0;swimlaneBody=0;top=0;left=0;bottom=0;right=0;dropTarget=0;collapsible=0;recursiveResize=0;expand=0;fontStyle=0;fillColor=none;strokeColor=inherit;align=center;" vertex="1" parent="86">
                    <mxGeometry y="204" width="841" height="44" as="geometry"/>
                </mxCell>
                <mxCell id="136" value="&lt;span style=&quot;white-space: pre;&quot;&gt;&#9;&lt;/span&gt;3.1.1 USER selects first classifier" style="connectable=0;recursiveResize=0;strokeColor=inherit;fillColor=none;align=left;whiteSpace=wrap;html=1;labelPosition=center;verticalLabelPosition=middle;verticalAlign=middle;" vertex="1" parent="135">
                    <mxGeometry width="480" height="44" as="geometry">
                        <mxRectangle width="480" height="44" as="alternateBounds"/>
                    </mxGeometry>
                </mxCell>
                <mxCell id="137" style="connectable=0;recursiveResize=0;strokeColor=inherit;fillColor=none;align=center;whiteSpace=wrap;html=1;" vertex="1" parent="135">
                    <mxGeometry x="480" width="200" height="44" as="geometry">
                        <mxRectangle width="200" height="44" as="alternateBounds"/>
                    </mxGeometry>
                </mxCell>
                <mxCell id="138" style="connectable=0;recursiveResize=0;strokeColor=inherit;fillColor=none;align=center;whiteSpace=wrap;html=1;" vertex="1" parent="135">
                    <mxGeometry x="680" width="161" height="44" as="geometry">
                        <mxRectangle width="161" height="44" as="alternateBounds"/>
                    </mxGeometry>
                </mxCell>
                <mxCell id="151" style="shape=tableRow;horizontal=0;startSize=0;swimlaneHead=0;swimlaneBody=0;top=0;left=0;bottom=0;right=0;dropTarget=0;collapsible=0;recursiveResize=0;expand=0;fontStyle=0;fillColor=none;strokeColor=inherit;align=center;" vertex="1" parent="86">
                    <mxGeometry y="248" width="841" height="44" as="geometry"/>
                </mxCell>
                <mxCell id="152" value="&lt;span style=&quot;white-space: pre;&quot;&gt;&#9;&lt;/span&gt;3.2 ELSE&amp;nbsp;&amp;nbsp;" style="connectable=0;recursiveResize=0;strokeColor=inherit;fillColor=none;align=left;whiteSpace=wrap;html=1;labelPosition=center;verticalLabelPosition=middle;verticalAlign=middle;" vertex="1" parent="151">
                    <mxGeometry width="480" height="44" as="geometry">
                        <mxRectangle width="480" height="44" as="alternateBounds"/>
                    </mxGeometry>
                </mxCell>
                <mxCell id="153" style="connectable=0;recursiveResize=0;strokeColor=inherit;fillColor=none;align=center;whiteSpace=wrap;html=1;" vertex="1" parent="151">
                    <mxGeometry x="480" width="200" height="44" as="geometry">
                        <mxRectangle width="200" height="44" as="alternateBounds"/>
                    </mxGeometry>
                </mxCell>
                <mxCell id="154" style="connectable=0;recursiveResize=0;strokeColor=inherit;fillColor=none;align=center;whiteSpace=wrap;html=1;" vertex="1" parent="151">
                    <mxGeometry x="680" width="161" height="44" as="geometry">
                        <mxRectangle width="161" height="44" as="alternateBounds"/>
                    </mxGeometry>
                </mxCell>
                <mxCell id="147" style="shape=tableRow;horizontal=0;startSize=0;swimlaneHead=0;swimlaneBody=0;top=0;left=0;bottom=0;right=0;dropTarget=0;collapsible=0;recursiveResize=0;expand=0;fontStyle=0;fillColor=none;strokeColor=inherit;align=center;" vertex="1" parent="86">
                    <mxGeometry y="292" width="841" height="44" as="geometry"/>
                </mxCell>
                <mxCell id="148" value="&lt;span style=&quot;white-space: pre;&quot;&gt;&#9;&lt;/span&gt;3.2.1 USER confronts number of layers between the two" style="connectable=0;recursiveResize=0;strokeColor=inherit;fillColor=none;align=left;whiteSpace=wrap;html=1;labelPosition=center;verticalLabelPosition=middle;verticalAlign=middle;" vertex="1" parent="147">
                    <mxGeometry width="480" height="44" as="geometry">
                        <mxRectangle width="480" height="44" as="alternateBounds"/>
                    </mxGeometry>
                </mxCell>
                <mxCell id="149" style="connectable=0;recursiveResize=0;strokeColor=inherit;fillColor=none;align=center;whiteSpace=wrap;html=1;" vertex="1" parent="147">
                    <mxGeometry x="480" width="200" height="44" as="geometry">
                        <mxRectangle width="200" height="44" as="alternateBounds"/>
                    </mxGeometry>
                </mxCell>
                <mxCell id="150" style="connectable=0;recursiveResize=0;strokeColor=inherit;fillColor=none;align=center;whiteSpace=wrap;html=1;" vertex="1" parent="147">
                    <mxGeometry x="680" width="161" height="44" as="geometry">
                        <mxRectangle width="161" height="44" as="alternateBounds"/>
                    </mxGeometry>
                </mxCell>
                <mxCell id="143" style="shape=tableRow;horizontal=0;startSize=0;swimlaneHead=0;swimlaneBody=0;top=0;left=0;bottom=0;right=0;dropTarget=0;collapsible=0;recursiveResize=0;expand=0;fontStyle=0;fillColor=none;strokeColor=inherit;align=center;" vertex="1" parent="86">
                    <mxGeometry y="336" width="841" height="44" as="geometry"/>
                </mxCell>
                <mxCell id="144" value="&lt;span style=&quot;white-space: pre;&quot;&gt;&#9;&lt;/span&gt;3.2.2 IF they are not the same" style="connectable=0;recursiveResize=0;strokeColor=inherit;fillColor=none;align=left;whiteSpace=wrap;html=1;labelPosition=center;verticalLabelPosition=middle;verticalAlign=middle;" vertex="1" parent="143">
                    <mxGeometry width="480" height="44" as="geometry">
                        <mxRectangle width="480" height="44" as="alternateBounds"/>
                    </mxGeometry>
                </mxCell>
                <mxCell id="145" style="connectable=0;recursiveResize=0;strokeColor=inherit;fillColor=none;align=center;whiteSpace=wrap;html=1;" vertex="1" parent="143">
                    <mxGeometry x="480" width="200" height="44" as="geometry">
                        <mxRectangle width="200" height="44" as="alternateBounds"/>
                    </mxGeometry>
                </mxCell>
                <mxCell id="146" style="connectable=0;recursiveResize=0;strokeColor=inherit;fillColor=none;align=center;whiteSpace=wrap;html=1;" vertex="1" parent="143">
                    <mxGeometry x="680" width="161" height="44" as="geometry">
                        <mxRectangle width="161" height="44" as="alternateBounds"/>
                    </mxGeometry>
                </mxCell>
                <mxCell id="103" style="shape=tableRow;horizontal=0;startSize=0;swimlaneHead=0;swimlaneBody=0;top=0;left=0;bottom=0;right=0;dropTarget=0;collapsible=0;recursiveResize=0;expand=0;fontStyle=0;fillColor=none;strokeColor=inherit;align=center;" vertex="1" parent="86">
                    <mxGeometry y="380" width="841" height="44" as="geometry"/>
                </mxCell>
                <mxCell id="104" value="&lt;span style=&quot;white-space: pre;&quot;&gt;&#9;&lt;/span&gt;3.1&amp;nbsp;IF valid classifier is present" style="connectable=0;recursiveResize=0;strokeColor=inherit;fillColor=none;align=left;whiteSpace=wrap;html=1;labelPosition=center;verticalLabelPosition=middle;verticalAlign=middle;" vertex="1" parent="103">
                    <mxGeometry width="480" height="44" as="geometry">
                        <mxRectangle width="480" height="44" as="alternateBounds"/>
                    </mxGeometry>
                </mxCell>
                <mxCell id="105" value=".95" style="connectable=0;recursiveResize=0;strokeColor=inherit;fillColor=none;align=center;whiteSpace=wrap;html=1;" vertex="1" parent="103">
                    <mxGeometry x="480" width="200" height="44" as="geometry">
                        <mxRectangle width="200" height="44" as="alternateBounds"/>
                    </mxGeometry>
                </mxCell>
                <mxCell id="106" value="" style="connectable=0;recursiveResize=0;strokeColor=inherit;fillColor=none;align=center;whiteSpace=wrap;html=1;" vertex="1" parent="103">
                    <mxGeometry x="680" width="161" height="44" as="geometry">
                        <mxRectangle width="161" height="44" as="alternateBounds"/>
                    </mxGeometry>
                </mxCell>
                <mxCell id="107" style="shape=tableRow;horizontal=0;startSize=0;swimlaneHead=0;swimlaneBody=0;top=0;left=0;bottom=0;right=0;dropTarget=0;collapsible=0;recursiveResize=0;expand=0;fontStyle=0;fillColor=none;strokeColor=inherit;align=center;" vertex="1" parent="86">
                    <mxGeometry y="424" width="841" height="44" as="geometry"/>
                </mxCell>
                <mxCell id="108" value="&lt;span style=&quot;&quot;&gt;&#9;&lt;/span&gt;&lt;span style=&quot;white-space: pre;&quot;&gt;&#9;&lt;/span&gt;3.1.1&amp;nbsp;USER selects the classifier of choice" style="connectable=0;recursiveResize=0;strokeColor=inherit;fillColor=none;align=left;whiteSpace=wrap;html=1;labelPosition=center;verticalLabelPosition=middle;verticalAlign=middle;" vertex="1" parent="107">
                    <mxGeometry width="480" height="44" as="geometry">
                        <mxRectangle width="480" height="44" as="alternateBounds"/>
                    </mxGeometry>
                </mxCell>
                <mxCell id="109" value=".95 x 1 x 2.5" style="connectable=0;recursiveResize=0;strokeColor=inherit;fillColor=none;align=center;whiteSpace=wrap;html=1;" vertex="1" parent="107">
                    <mxGeometry x="480" width="200" height="44" as="geometry">
                        <mxRectangle width="200" height="44" as="alternateBounds"/>
                    </mxGeometry>
                </mxCell>
                <mxCell id="110" value="2.375" style="connectable=0;recursiveResize=0;strokeColor=inherit;fillColor=none;align=center;whiteSpace=wrap;html=1;" vertex="1" parent="107">
                    <mxGeometry x="680" width="161" height="44" as="geometry">
                        <mxRectangle width="161" height="44" as="alternateBounds"/>
                    </mxGeometry>
                </mxCell>
                <mxCell id="111" style="shape=tableRow;horizontal=0;startSize=0;swimlaneHead=0;swimlaneBody=0;top=0;left=0;bottom=0;right=0;dropTarget=0;collapsible=0;recursiveResize=0;expand=0;fontStyle=0;fillColor=none;strokeColor=inherit;align=center;" vertex="1" parent="86">
                    <mxGeometry y="468" width="841" height="44" as="geometry"/>
                </mxCell>
                <mxCell id="112" value="&lt;span style=&quot;white-space: pre;&quot;&gt;&#9;&lt;/span&gt;3.1.2 SYSTEM enables &quot;SAVE CLASSIFIER&quot; button" style="connectable=0;recursiveResize=0;strokeColor=inherit;fillColor=none;align=left;whiteSpace=wrap;html=1;labelPosition=center;verticalLabelPosition=middle;verticalAlign=middle;" vertex="1" parent="111">
                    <mxGeometry width="480" height="44" as="geometry">
                        <mxRectangle width="480" height="44" as="alternateBounds"/>
                    </mxGeometry>
                </mxCell>
                <mxCell id="113" style="connectable=0;recursiveResize=0;strokeColor=inherit;fillColor=none;align=center;whiteSpace=wrap;html=1;" vertex="1" parent="111">
                    <mxGeometry x="480" width="200" height="44" as="geometry">
                        <mxRectangle width="200" height="44" as="alternateBounds"/>
                    </mxGeometry>
                </mxCell>
                <mxCell id="114" style="connectable=0;recursiveResize=0;strokeColor=inherit;fillColor=none;align=center;whiteSpace=wrap;html=1;" vertex="1" parent="111">
                    <mxGeometry x="680" width="161" height="44" as="geometry">
                        <mxRectangle width="161" height="44" as="alternateBounds"/>
                    </mxGeometry>
                </mxCell>
                <mxCell id="115" style="shape=tableRow;horizontal=0;startSize=0;swimlaneHead=0;swimlaneBody=0;top=0;left=0;bottom=0;right=0;dropTarget=0;collapsible=0;recursiveResize=0;expand=0;fontStyle=0;fillColor=none;strokeColor=inherit;align=center;" vertex="1" parent="86">
                    <mxGeometry y="512" width="841" height="44" as="geometry"/>
                </mxCell>
                <mxCell id="116" value="&lt;span style=&quot;white-space: pre;&quot;&gt;&#9;&lt;/span&gt;3.1.3 USER presses &quot;SAVE CLASSIFIER&quot;" style="connectable=0;recursiveResize=0;strokeColor=inherit;fillColor=none;align=left;whiteSpace=wrap;html=1;labelPosition=center;verticalLabelPosition=middle;verticalAlign=middle;" vertex="1" parent="115">
                    <mxGeometry width="480" height="44" as="geometry">
                        <mxRectangle width="480" height="44" as="alternateBounds"/>
                    </mxGeometry>
                </mxCell>
                <mxCell id="117" value=".95 x 1 x 2.5" style="connectable=0;recursiveResize=0;strokeColor=inherit;fillColor=none;align=center;whiteSpace=wrap;html=1;" vertex="1" parent="115">
                    <mxGeometry x="480" width="200" height="44" as="geometry">
                        <mxRectangle width="200" height="44" as="alternateBounds"/>
                    </mxGeometry>
                </mxCell>
                <mxCell id="118" value="2.375" style="connectable=0;recursiveResize=0;strokeColor=inherit;fillColor=none;align=center;whiteSpace=wrap;html=1;" vertex="1" parent="115">
                    <mxGeometry x="680" width="161" height="44" as="geometry">
                        <mxRectangle width="161" height="44" as="alternateBounds"/>
                    </mxGeometry>
                </mxCell>
                <mxCell id="119" style="shape=tableRow;horizontal=0;startSize=0;swimlaneHead=0;swimlaneBody=0;top=0;left=0;bottom=0;right=0;dropTarget=0;collapsible=0;recursiveResize=0;expand=0;fontStyle=0;fillColor=none;strokeColor=inherit;align=center;" vertex="1" parent="86">
                    <mxGeometry y="556" width="841" height="45" as="geometry"/>
                </mxCell>
                <mxCell id="120" value="&lt;span style=&quot;white-space: pre;&quot;&gt;&#9;&lt;/span&gt;3.2&amp;nbsp;ELSE if invalid classifier" style="connectable=0;recursiveResize=0;strokeColor=inherit;fillColor=none;align=left;whiteSpace=wrap;html=1;labelPosition=center;verticalLabelPosition=middle;verticalAlign=middle;" vertex="1" parent="119">
                    <mxGeometry width="480" height="45" as="geometry">
                        <mxRectangle width="480" height="45" as="alternateBounds"/>
                    </mxGeometry>
                </mxCell>
                <mxCell id="121" value=".05" style="connectable=0;recursiveResize=0;strokeColor=inherit;fillColor=none;align=center;whiteSpace=wrap;html=1;" vertex="1" parent="119">
                    <mxGeometry x="480" width="200" height="45" as="geometry">
                        <mxRectangle width="200" height="45" as="alternateBounds"/>
                    </mxGeometry>
                </mxCell>
                <mxCell id="122" style="connectable=0;recursiveResize=0;strokeColor=inherit;fillColor=none;align=center;whiteSpace=wrap;html=1;" vertex="1" parent="119">
                    <mxGeometry x="680" width="161" height="45" as="geometry">
                        <mxRectangle width="161" height="45" as="alternateBounds"/>
                    </mxGeometry>
                </mxCell>
                <mxCell id="123" style="shape=tableRow;horizontal=0;startSize=0;swimlaneHead=0;swimlaneBody=0;top=0;left=0;bottom=0;right=0;dropTarget=0;collapsible=0;recursiveResize=0;expand=0;fontStyle=0;fillColor=none;strokeColor=inherit;align=center;" vertex="1" parent="86">
                    <mxGeometry y="601" width="841" height="44" as="geometry"/>
                </mxCell>
                <mxCell id="124" value="&lt;span style=&quot;white-space: pre;&quot;&gt;&#9;&lt;/span&gt;3.2.1&amp;nbsp;USER selects &quot;INVALID CLASSIFIER&quot;" style="connectable=0;recursiveResize=0;strokeColor=inherit;fillColor=none;align=left;whiteSpace=wrap;html=1;labelPosition=center;verticalLabelPosition=middle;verticalAlign=middle;" vertex="1" parent="123">
                    <mxGeometry width="480" height="44" as="geometry">
                        <mxRectangle width="480" height="44" as="alternateBounds"/>
                    </mxGeometry>
                </mxCell>
                <mxCell id="125" value=".05 x 1 x 2.5" style="connectable=0;recursiveResize=0;strokeColor=inherit;fillColor=none;align=center;whiteSpace=wrap;html=1;" vertex="1" parent="123">
                    <mxGeometry x="480" width="200" height="44" as="geometry">
                        <mxRectangle width="200" height="44" as="alternateBounds"/>
                    </mxGeometry>
                </mxCell>
                <mxCell id="126" value="1.25" style="connectable=0;recursiveResize=0;strokeColor=inherit;fillColor=none;align=center;whiteSpace=wrap;html=1;" vertex="1" parent="123">
                    <mxGeometry x="680" width="161" height="44" as="geometry">
                        <mxRectangle width="161" height="44" as="alternateBounds"/>
                    </mxGeometry>
                </mxCell>
                <mxCell id="127" style="shape=tableRow;horizontal=0;startSize=0;swimlaneHead=0;swimlaneBody=0;top=0;left=0;bottom=0;right=0;dropTarget=0;collapsible=0;recursiveResize=0;expand=0;fontStyle=0;fillColor=none;strokeColor=inherit;align=center;" vertex="1" parent="86">
                    <mxGeometry y="645" width="841" height="44" as="geometry"/>
                </mxCell>
                <mxCell id="128" value="&lt;span style=&quot;&quot;&gt;&#9;&lt;/span&gt;&lt;span style=&quot;white-space: pre;&quot;&gt;&#9;&lt;/span&gt;4 USER closes data balancing form" style="connectable=0;recursiveResize=0;strokeColor=inherit;fillColor=none;align=left;whiteSpace=wrap;html=1;labelPosition=center;verticalLabelPosition=middle;verticalAlign=middle;" vertex="1" parent="127">
                    <mxGeometry width="480" height="44" as="geometry">
                        <mxRectangle width="480" height="44" as="alternateBounds"/>
                    </mxGeometry>
                </mxCell>
                <mxCell id="129" value="1 x 1 x 2.5" style="connectable=0;recursiveResize=0;strokeColor=inherit;fillColor=none;align=center;whiteSpace=wrap;html=1;" vertex="1" parent="127">
                    <mxGeometry x="480" width="200" height="44" as="geometry">
                        <mxRectangle width="200" height="44" as="alternateBounds"/>
                    </mxGeometry>
                </mxCell>
                <mxCell id="130" value="2.5" style="connectable=0;recursiveResize=0;strokeColor=inherit;fillColor=none;align=center;whiteSpace=wrap;html=1;" vertex="1" parent="127">
                    <mxGeometry x="680" width="161" height="44" as="geometry">
                        <mxRectangle width="161" height="44" as="alternateBounds"/>
                    </mxGeometry>
                </mxCell>
                <mxCell id="131" style="shape=tableRow;horizontal=0;startSize=0;swimlaneHead=0;swimlaneBody=0;top=0;left=0;bottom=0;right=0;dropTarget=0;collapsible=0;recursiveResize=0;expand=0;fontStyle=0;fillColor=none;strokeColor=inherit;align=center;" vertex="1" parent="86">
                    <mxGeometry y="689" width="841" height="44" as="geometry"/>
                </mxCell>
                <mxCell id="132" style="connectable=0;recursiveResize=0;strokeColor=inherit;fillColor=none;align=left;whiteSpace=wrap;html=1;labelPosition=center;verticalLabelPosition=middle;verticalAlign=middle;" vertex="1" parent="131">
                    <mxGeometry width="480" height="44" as="geometry">
                        <mxRectangle width="480" height="44" as="alternateBounds"/>
                    </mxGeometry>
                </mxCell>
                <mxCell id="133" value="&lt;b&gt;HUMAN TASKS COST&lt;/b&gt;" style="connectable=0;recursiveResize=0;strokeColor=inherit;fillColor=none;align=center;whiteSpace=wrap;html=1;" vertex="1" parent="131">
                    <mxGeometry x="480" width="200" height="44" as="geometry">
                        <mxRectangle width="200" height="44" as="alternateBounds"/>
                    </mxGeometry>
                </mxCell>
                <mxCell id="134" value="&lt;b&gt;18.5&lt;/b&gt;" style="connectable=0;recursiveResize=0;strokeColor=inherit;fillColor=none;align=center;whiteSpace=wrap;html=1;" vertex="1" parent="131">
                    <mxGeometry x="680" width="161" height="44" as="geometry">
                        <mxRectangle width="161" height="44" as="alternateBounds"/>
                    </mxGeometry>
                </mxCell>
            </root>
        </mxGraphModel>
    </diagram>
</mxfile>